<mxfile host="app.diagrams.net" modified="2022-06-07T11:24:00.984Z" agent="5.0 (Windows NT 10.0; Win64; x64) AppleWebKit/537.36 (KHTML, like Gecko) Chrome/101.0.4951.64 Safari/537.36 Edg/101.0.1210.53" etag="9Cp1HpMu1wjinLVt_ddP" version="19.0.1" type="github">
  <diagram id="4bk-3TSJw1YxWKOTM-wk" name="第 1 页">
    <mxGraphModel dx="1038" dy="20579" grid="1" gridSize="10" guides="1" tooltips="1" connect="1" arrows="1" fold="1" page="1" pageScale="1" pageWidth="20000" pageHeight="20000" math="0" shadow="0">
      <root>
        <mxCell id="0" />
        <mxCell id="1" parent="0" />
        <mxCell id="xa0LcUNzNGY0evP8suMF-112" value="" style="shape=table;startSize=0;container=1;collapsible=0;childLayout=tableLayout;fontSize=14;fontColor=#000000;" vertex="1" parent="1">
          <mxGeometry x="60" y="150" width="70" height="160" as="geometry" />
        </mxCell>
        <mxCell id="xa0LcUNzNGY0evP8suMF-113" value="" style="shape=tableRow;horizontal=0;startSize=0;swimlaneHead=0;swimlaneBody=0;top=0;left=0;bottom=0;right=0;collapsible=0;dropTarget=0;fillColor=none;points=[[0,0.5],[1,0.5]];portConstraint=eastwest;dashed=1;fontSize=14;fontColor=#000000;" vertex="1" parent="xa0LcUNzNGY0evP8suMF-112">
          <mxGeometry width="70" height="40" as="geometry" />
        </mxCell>
        <mxCell id="xa0LcUNzNGY0evP8suMF-114" value="header" style="shape=partialRectangle;html=1;whiteSpace=wrap;connectable=0;overflow=hidden;fillColor=none;top=0;left=0;bottom=0;right=0;pointerEvents=1;dashed=1;fontSize=14;fontColor=#000000;" vertex="1" parent="xa0LcUNzNGY0evP8suMF-113">
          <mxGeometry width="70" height="40" as="geometry">
            <mxRectangle width="70" height="40" as="alternateBounds" />
          </mxGeometry>
        </mxCell>
        <mxCell id="xa0LcUNzNGY0evP8suMF-115" value="" style="shape=tableRow;horizontal=0;startSize=0;swimlaneHead=0;swimlaneBody=0;top=0;left=0;bottom=0;right=0;collapsible=0;dropTarget=0;fillColor=none;points=[[0,0.5],[1,0.5]];portConstraint=eastwest;dashed=1;fontSize=14;fontColor=#000000;" vertex="1" parent="xa0LcUNzNGY0evP8suMF-112">
          <mxGeometry y="40" width="70" height="40" as="geometry" />
        </mxCell>
        <mxCell id="xa0LcUNzNGY0evP8suMF-116" value="tail" style="shape=partialRectangle;html=1;whiteSpace=wrap;connectable=0;overflow=hidden;fillColor=none;top=0;left=0;bottom=0;right=0;pointerEvents=1;dashed=1;fontSize=14;fontColor=#000000;" vertex="1" parent="xa0LcUNzNGY0evP8suMF-115">
          <mxGeometry width="70" height="40" as="geometry">
            <mxRectangle width="70" height="40" as="alternateBounds" />
          </mxGeometry>
        </mxCell>
        <mxCell id="xa0LcUNzNGY0evP8suMF-117" value="" style="shape=tableRow;horizontal=0;startSize=0;swimlaneHead=0;swimlaneBody=0;top=0;left=0;bottom=0;right=0;collapsible=0;dropTarget=0;fillColor=none;points=[[0,0.5],[1,0.5]];portConstraint=eastwest;dashed=1;fontSize=14;fontColor=#000000;" vertex="1" parent="xa0LcUNzNGY0evP8suMF-112">
          <mxGeometry y="80" width="70" height="40" as="geometry" />
        </mxCell>
        <mxCell id="xa0LcUNzNGY0evP8suMF-118" value="&lt;pre style=&quot;background-color: rgb(255, 255, 255); font-family: &amp;quot;JetBrains Mono&amp;quot;, monospace; font-size: 9.8pt;&quot;&gt;length(3)&lt;/pre&gt;" style="shape=partialRectangle;html=1;whiteSpace=wrap;connectable=0;overflow=hidden;fillColor=none;top=0;left=0;bottom=0;right=0;pointerEvents=1;dashed=1;fontSize=14;fontColor=#000000;" vertex="1" parent="xa0LcUNzNGY0evP8suMF-117">
          <mxGeometry width="70" height="40" as="geometry">
            <mxRectangle width="70" height="40" as="alternateBounds" />
          </mxGeometry>
        </mxCell>
        <mxCell id="xa0LcUNzNGY0evP8suMF-119" value="" style="shape=tableRow;horizontal=0;startSize=0;swimlaneHead=0;swimlaneBody=0;top=0;left=0;bottom=0;right=0;collapsible=0;dropTarget=0;fillColor=none;points=[[0,0.5],[1,0.5]];portConstraint=eastwest;dashed=1;fontSize=14;fontColor=#000000;" vertex="1" parent="xa0LcUNzNGY0evP8suMF-112">
          <mxGeometry y="120" width="70" height="40" as="geometry" />
        </mxCell>
        <mxCell id="xa0LcUNzNGY0evP8suMF-120" value="&lt;pre style=&quot;background-color: rgb(255, 255, 255); font-family: &amp;quot;JetBrains Mono&amp;quot;, monospace; font-size: 9.8pt;&quot;&gt;level(5)&lt;/pre&gt;" style="shape=partialRectangle;html=1;whiteSpace=wrap;connectable=0;overflow=hidden;fillColor=none;top=0;left=0;bottom=0;right=0;pointerEvents=1;dashed=1;fontSize=14;fontColor=#000000;" vertex="1" parent="xa0LcUNzNGY0evP8suMF-119">
          <mxGeometry width="70" height="40" as="geometry">
            <mxRectangle width="70" height="40" as="alternateBounds" />
          </mxGeometry>
        </mxCell>
        <mxCell id="xa0LcUNzNGY0evP8suMF-121" value="" style="shape=table;startSize=0;container=1;collapsible=0;childLayout=tableLayout;fontSize=14;fontColor=#000000;" vertex="1" parent="1">
          <mxGeometry x="240" y="-120" width="60" height="280" as="geometry" />
        </mxCell>
        <mxCell id="xa0LcUNzNGY0evP8suMF-122" value="" style="shape=tableRow;horizontal=0;startSize=0;swimlaneHead=0;swimlaneBody=0;top=0;left=0;bottom=0;right=0;collapsible=0;dropTarget=0;fillColor=none;points=[[0,0.5],[1,0.5]];portConstraint=eastwest;fontSize=14;fontColor=#000000;" vertex="1" parent="xa0LcUNzNGY0evP8suMF-121">
          <mxGeometry width="60" height="40" as="geometry" />
        </mxCell>
        <mxCell id="xa0LcUNzNGY0evP8suMF-123" value="Level32" style="shape=partialRectangle;html=1;whiteSpace=wrap;connectable=0;overflow=hidden;fillColor=none;top=0;left=0;bottom=0;right=0;pointerEvents=1;fontSize=14;fontColor=#000000;" vertex="1" parent="xa0LcUNzNGY0evP8suMF-122">
          <mxGeometry width="60" height="40" as="geometry">
            <mxRectangle width="60" height="40" as="alternateBounds" />
          </mxGeometry>
        </mxCell>
        <mxCell id="xa0LcUNzNGY0evP8suMF-124" value="" style="shape=tableRow;horizontal=0;startSize=0;swimlaneHead=0;swimlaneBody=0;top=0;left=0;bottom=0;right=0;collapsible=0;dropTarget=0;fillColor=none;points=[[0,0.5],[1,0.5]];portConstraint=eastwest;fontSize=14;fontColor=#000000;" vertex="1" parent="xa0LcUNzNGY0evP8suMF-121">
          <mxGeometry y="40" width="60" height="40" as="geometry" />
        </mxCell>
        <mxCell id="xa0LcUNzNGY0evP8suMF-125" value="……" style="shape=partialRectangle;html=1;whiteSpace=wrap;connectable=0;overflow=hidden;fillColor=none;top=0;left=0;bottom=0;right=0;pointerEvents=1;fontSize=14;fontColor=#000000;" vertex="1" parent="xa0LcUNzNGY0evP8suMF-124">
          <mxGeometry width="60" height="40" as="geometry">
            <mxRectangle width="60" height="40" as="alternateBounds" />
          </mxGeometry>
        </mxCell>
        <mxCell id="xa0LcUNzNGY0evP8suMF-126" value="" style="shape=tableRow;horizontal=0;startSize=0;swimlaneHead=0;swimlaneBody=0;top=0;left=0;bottom=0;right=0;collapsible=0;dropTarget=0;fillColor=none;points=[[0,0.5],[1,0.5]];portConstraint=eastwest;fontSize=14;fontColor=#000000;" vertex="1" parent="xa0LcUNzNGY0evP8suMF-121">
          <mxGeometry y="80" width="60" height="40" as="geometry" />
        </mxCell>
        <mxCell id="xa0LcUNzNGY0evP8suMF-127" value="&lt;span style=&quot;&quot;&gt;Level5&lt;/span&gt;" style="shape=partialRectangle;html=1;whiteSpace=wrap;connectable=0;overflow=hidden;fillColor=none;top=0;left=0;bottom=0;right=0;pointerEvents=1;fontSize=14;fontColor=#000000;" vertex="1" parent="xa0LcUNzNGY0evP8suMF-126">
          <mxGeometry width="60" height="40" as="geometry">
            <mxRectangle width="60" height="40" as="alternateBounds" />
          </mxGeometry>
        </mxCell>
        <mxCell id="xa0LcUNzNGY0evP8suMF-128" value="" style="shape=tableRow;horizontal=0;startSize=0;swimlaneHead=0;swimlaneBody=0;top=0;left=0;bottom=0;right=0;collapsible=0;dropTarget=0;fillColor=none;points=[[0,0.5],[1,0.5]];portConstraint=eastwest;fontSize=14;fontColor=#000000;" vertex="1" parent="xa0LcUNzNGY0evP8suMF-121">
          <mxGeometry y="120" width="60" height="40" as="geometry" />
        </mxCell>
        <mxCell id="xa0LcUNzNGY0evP8suMF-129" value="Level4" style="shape=partialRectangle;html=1;whiteSpace=wrap;connectable=0;overflow=hidden;fillColor=none;top=0;left=0;bottom=0;right=0;pointerEvents=1;fontSize=14;fontColor=#000000;" vertex="1" parent="xa0LcUNzNGY0evP8suMF-128">
          <mxGeometry width="60" height="40" as="geometry">
            <mxRectangle width="60" height="40" as="alternateBounds" />
          </mxGeometry>
        </mxCell>
        <mxCell id="xa0LcUNzNGY0evP8suMF-130" value="" style="shape=tableRow;horizontal=0;startSize=0;swimlaneHead=0;swimlaneBody=0;top=0;left=0;bottom=0;right=0;collapsible=0;dropTarget=0;fillColor=none;points=[[0,0.5],[1,0.5]];portConstraint=eastwest;fontSize=14;fontColor=#000000;" vertex="1" parent="xa0LcUNzNGY0evP8suMF-121">
          <mxGeometry y="160" width="60" height="40" as="geometry" />
        </mxCell>
        <mxCell id="xa0LcUNzNGY0evP8suMF-131" value="Level3" style="shape=partialRectangle;html=1;whiteSpace=wrap;connectable=0;overflow=hidden;fillColor=none;top=0;left=0;bottom=0;right=0;pointerEvents=1;fontSize=14;fontColor=#000000;" vertex="1" parent="xa0LcUNzNGY0evP8suMF-130">
          <mxGeometry width="60" height="40" as="geometry">
            <mxRectangle width="60" height="40" as="alternateBounds" />
          </mxGeometry>
        </mxCell>
        <mxCell id="xa0LcUNzNGY0evP8suMF-132" value="" style="shape=tableRow;horizontal=0;startSize=0;swimlaneHead=0;swimlaneBody=0;top=0;left=0;bottom=0;right=0;collapsible=0;dropTarget=0;fillColor=none;points=[[0,0.5],[1,0.5]];portConstraint=eastwest;fontSize=14;fontColor=#000000;" vertex="1" parent="xa0LcUNzNGY0evP8suMF-121">
          <mxGeometry y="200" width="60" height="40" as="geometry" />
        </mxCell>
        <mxCell id="xa0LcUNzNGY0evP8suMF-133" value="Level2" style="shape=partialRectangle;html=1;whiteSpace=wrap;connectable=0;overflow=hidden;fillColor=none;top=0;left=0;bottom=0;right=0;pointerEvents=1;fontSize=14;fontColor=#000000;" vertex="1" parent="xa0LcUNzNGY0evP8suMF-132">
          <mxGeometry width="60" height="40" as="geometry">
            <mxRectangle width="60" height="40" as="alternateBounds" />
          </mxGeometry>
        </mxCell>
        <mxCell id="xa0LcUNzNGY0evP8suMF-134" value="" style="shape=tableRow;horizontal=0;startSize=0;swimlaneHead=0;swimlaneBody=0;top=0;left=0;bottom=0;right=0;collapsible=0;dropTarget=0;fillColor=none;points=[[0,0.5],[1,0.5]];portConstraint=eastwest;fontSize=14;fontColor=#000000;" vertex="1" parent="xa0LcUNzNGY0evP8suMF-121">
          <mxGeometry y="240" width="60" height="40" as="geometry" />
        </mxCell>
        <mxCell id="xa0LcUNzNGY0evP8suMF-135" value="Level1" style="shape=partialRectangle;html=1;whiteSpace=wrap;connectable=0;overflow=hidden;fillColor=none;top=0;left=0;bottom=0;right=0;pointerEvents=1;fontSize=14;fontColor=#000000;" vertex="1" parent="xa0LcUNzNGY0evP8suMF-134">
          <mxGeometry width="60" height="40" as="geometry">
            <mxRectangle width="60" height="40" as="alternateBounds" />
          </mxGeometry>
        </mxCell>
        <mxCell id="xa0LcUNzNGY0evP8suMF-196" value="" style="shape=table;startSize=0;container=1;collapsible=0;childLayout=tableLayout;fontSize=14;fontColor=#000000;" vertex="1" parent="1">
          <mxGeometry x="390" y="10" width="60" height="310" as="geometry" />
        </mxCell>
        <mxCell id="xa0LcUNzNGY0evP8suMF-201" value="" style="shape=tableRow;horizontal=0;startSize=0;swimlaneHead=0;swimlaneBody=0;top=0;left=0;bottom=0;right=0;collapsible=0;dropTarget=0;fillColor=none;points=[[0,0.5],[1,0.5]];portConstraint=eastwest;fontSize=14;fontColor=#000000;" vertex="1" parent="xa0LcUNzNGY0evP8suMF-196">
          <mxGeometry width="60" height="40" as="geometry" />
        </mxCell>
        <mxCell id="xa0LcUNzNGY0evP8suMF-202" value="&lt;span style=&quot;&quot;&gt;Level5&lt;/span&gt;" style="shape=partialRectangle;html=1;whiteSpace=wrap;connectable=0;overflow=hidden;fillColor=none;top=0;left=0;bottom=0;right=0;pointerEvents=1;fontSize=14;fontColor=#000000;" vertex="1" parent="xa0LcUNzNGY0evP8suMF-201">
          <mxGeometry width="60" height="40" as="geometry">
            <mxRectangle width="60" height="40" as="alternateBounds" />
          </mxGeometry>
        </mxCell>
        <mxCell id="xa0LcUNzNGY0evP8suMF-203" value="" style="shape=tableRow;horizontal=0;startSize=0;swimlaneHead=0;swimlaneBody=0;top=0;left=0;bottom=0;right=0;collapsible=0;dropTarget=0;fillColor=none;points=[[0,0.5],[1,0.5]];portConstraint=eastwest;fontSize=14;fontColor=#000000;" vertex="1" parent="xa0LcUNzNGY0evP8suMF-196">
          <mxGeometry y="40" width="60" height="40" as="geometry" />
        </mxCell>
        <mxCell id="xa0LcUNzNGY0evP8suMF-204" value="Level4" style="shape=partialRectangle;html=1;whiteSpace=wrap;connectable=0;overflow=hidden;fillColor=none;top=0;left=0;bottom=0;right=0;pointerEvents=1;fontSize=14;fontColor=#000000;" vertex="1" parent="xa0LcUNzNGY0evP8suMF-203">
          <mxGeometry width="60" height="40" as="geometry">
            <mxRectangle width="60" height="40" as="alternateBounds" />
          </mxGeometry>
        </mxCell>
        <mxCell id="xa0LcUNzNGY0evP8suMF-205" value="" style="shape=tableRow;horizontal=0;startSize=0;swimlaneHead=0;swimlaneBody=0;top=0;left=0;bottom=0;right=0;collapsible=0;dropTarget=0;fillColor=none;points=[[0,0.5],[1,0.5]];portConstraint=eastwest;fontSize=14;fontColor=#000000;" vertex="1" parent="xa0LcUNzNGY0evP8suMF-196">
          <mxGeometry y="80" width="60" height="30" as="geometry" />
        </mxCell>
        <mxCell id="xa0LcUNzNGY0evP8suMF-206" value="Level3" style="shape=partialRectangle;html=1;whiteSpace=wrap;connectable=0;overflow=hidden;fillColor=none;top=0;left=0;bottom=0;right=0;pointerEvents=1;fontSize=14;fontColor=#000000;" vertex="1" parent="xa0LcUNzNGY0evP8suMF-205">
          <mxGeometry width="60" height="30" as="geometry">
            <mxRectangle width="60" height="30" as="alternateBounds" />
          </mxGeometry>
        </mxCell>
        <mxCell id="xa0LcUNzNGY0evP8suMF-207" value="" style="shape=tableRow;horizontal=0;startSize=0;swimlaneHead=0;swimlaneBody=0;top=0;left=0;bottom=0;right=0;collapsible=0;dropTarget=0;fillColor=none;points=[[0,0.5],[1,0.5]];portConstraint=eastwest;fontSize=14;fontColor=#000000;" vertex="1" parent="xa0LcUNzNGY0evP8suMF-196">
          <mxGeometry y="110" width="60" height="40" as="geometry" />
        </mxCell>
        <mxCell id="xa0LcUNzNGY0evP8suMF-208" value="Level2" style="shape=partialRectangle;html=1;whiteSpace=wrap;connectable=0;overflow=hidden;fillColor=none;top=0;left=0;bottom=0;right=0;pointerEvents=1;fontSize=14;fontColor=#000000;" vertex="1" parent="xa0LcUNzNGY0evP8suMF-207">
          <mxGeometry width="60" height="40" as="geometry">
            <mxRectangle width="60" height="40" as="alternateBounds" />
          </mxGeometry>
        </mxCell>
        <mxCell id="xa0LcUNzNGY0evP8suMF-209" value="" style="shape=tableRow;horizontal=0;startSize=0;swimlaneHead=0;swimlaneBody=0;top=0;left=0;bottom=0;right=0;collapsible=0;dropTarget=0;fillColor=none;points=[[0,0.5],[1,0.5]];portConstraint=eastwest;fontSize=14;fontColor=#000000;" vertex="1" parent="xa0LcUNzNGY0evP8suMF-196">
          <mxGeometry y="150" width="60" height="40" as="geometry" />
        </mxCell>
        <mxCell id="xa0LcUNzNGY0evP8suMF-210" value="Level1" style="shape=partialRectangle;html=1;whiteSpace=wrap;connectable=0;overflow=hidden;fillColor=none;top=0;left=0;bottom=0;right=0;pointerEvents=1;fontSize=14;fontColor=#000000;" vertex="1" parent="xa0LcUNzNGY0evP8suMF-209">
          <mxGeometry width="60" height="40" as="geometry">
            <mxRectangle width="60" height="40" as="alternateBounds" />
          </mxGeometry>
        </mxCell>
        <mxCell id="xa0LcUNzNGY0evP8suMF-245" style="shape=tableRow;horizontal=0;startSize=0;swimlaneHead=0;swimlaneBody=0;top=0;left=0;bottom=0;right=0;collapsible=0;dropTarget=0;fillColor=none;points=[[0,0.5],[1,0.5]];portConstraint=eastwest;fontSize=14;fontColor=#000000;" vertex="1" parent="xa0LcUNzNGY0evP8suMF-196">
          <mxGeometry y="190" width="60" height="40" as="geometry" />
        </mxCell>
        <mxCell id="xa0LcUNzNGY0evP8suMF-246" value="&lt;pre style=&quot;background-color: rgb(255, 255, 255); font-family: &amp;quot;JetBrains Mono&amp;quot;, monospace; font-size: 9.8pt;&quot;&gt;*&lt;span style=&quot;color:#660e7a;&quot;&gt;backward&lt;/span&gt;&lt;/pre&gt;" style="shape=partialRectangle;html=1;whiteSpace=wrap;connectable=0;overflow=hidden;fillColor=none;top=0;left=0;bottom=0;right=0;pointerEvents=1;fontSize=14;fontColor=#000000;" vertex="1" parent="xa0LcUNzNGY0evP8suMF-245">
          <mxGeometry width="60" height="40" as="geometry">
            <mxRectangle width="60" height="40" as="alternateBounds" />
          </mxGeometry>
        </mxCell>
        <mxCell id="xa0LcUNzNGY0evP8suMF-243" style="shape=tableRow;horizontal=0;startSize=0;swimlaneHead=0;swimlaneBody=0;top=0;left=0;bottom=0;right=0;collapsible=0;dropTarget=0;fillColor=none;points=[[0,0.5],[1,0.5]];portConstraint=eastwest;fontSize=14;fontColor=#000000;" vertex="1" parent="xa0LcUNzNGY0evP8suMF-196">
          <mxGeometry y="230" width="60" height="40" as="geometry" />
        </mxCell>
        <mxCell id="xa0LcUNzNGY0evP8suMF-244" value="&lt;pre style=&quot;background-color: rgb(255, 255, 255); font-family: &amp;quot;JetBrains Mono&amp;quot;, monospace; font-size: 9.8pt;&quot;&gt;&lt;span style=&quot;color:#660e7a;&quot;&gt;score&lt;/span&gt;&lt;/pre&gt;" style="shape=partialRectangle;html=1;whiteSpace=wrap;connectable=0;overflow=hidden;fillColor=none;top=0;left=0;bottom=0;right=0;pointerEvents=1;fontSize=14;fontColor=#000000;" vertex="1" parent="xa0LcUNzNGY0evP8suMF-243">
          <mxGeometry width="60" height="40" as="geometry">
            <mxRectangle width="60" height="40" as="alternateBounds" />
          </mxGeometry>
        </mxCell>
        <mxCell id="xa0LcUNzNGY0evP8suMF-264" style="shape=tableRow;horizontal=0;startSize=0;swimlaneHead=0;swimlaneBody=0;top=0;left=0;bottom=0;right=0;collapsible=0;dropTarget=0;fillColor=none;points=[[0,0.5],[1,0.5]];portConstraint=eastwest;fontSize=14;fontColor=#000000;" vertex="1" parent="xa0LcUNzNGY0evP8suMF-196">
          <mxGeometry y="270" width="60" height="40" as="geometry" />
        </mxCell>
        <mxCell id="xa0LcUNzNGY0evP8suMF-265" value="sds" style="shape=partialRectangle;html=1;whiteSpace=wrap;connectable=0;overflow=hidden;fillColor=none;top=0;left=0;bottom=0;right=0;pointerEvents=1;fontSize=14;fontColor=#000000;" vertex="1" parent="xa0LcUNzNGY0evP8suMF-264">
          <mxGeometry width="60" height="40" as="geometry">
            <mxRectangle width="60" height="40" as="alternateBounds" />
          </mxGeometry>
        </mxCell>
        <mxCell id="xa0LcUNzNGY0evP8suMF-211" value="" style="shape=table;startSize=0;container=1;collapsible=0;childLayout=tableLayout;fontSize=14;fontColor=#000000;" vertex="1" parent="1">
          <mxGeometry x="530" y="-90" width="60" height="320" as="geometry" />
        </mxCell>
        <mxCell id="xa0LcUNzNGY0evP8suMF-216" value="" style="shape=tableRow;horizontal=0;startSize=0;swimlaneHead=0;swimlaneBody=0;top=0;left=0;bottom=0;right=0;collapsible=0;dropTarget=0;fillColor=none;points=[[0,0.5],[1,0.5]];portConstraint=eastwest;fontSize=14;fontColor=#000000;" vertex="1" parent="xa0LcUNzNGY0evP8suMF-211">
          <mxGeometry width="60" height="40" as="geometry" />
        </mxCell>
        <mxCell id="xa0LcUNzNGY0evP8suMF-217" value="&lt;span style=&quot;&quot;&gt;Level5&lt;/span&gt;" style="shape=partialRectangle;html=1;whiteSpace=wrap;connectable=0;overflow=hidden;fillColor=none;top=0;left=0;bottom=0;right=0;pointerEvents=1;fontSize=14;fontColor=#000000;" vertex="1" parent="xa0LcUNzNGY0evP8suMF-216">
          <mxGeometry width="60" height="40" as="geometry">
            <mxRectangle width="60" height="40" as="alternateBounds" />
          </mxGeometry>
        </mxCell>
        <mxCell id="xa0LcUNzNGY0evP8suMF-218" value="" style="shape=tableRow;horizontal=0;startSize=0;swimlaneHead=0;swimlaneBody=0;top=0;left=0;bottom=0;right=0;collapsible=0;dropTarget=0;fillColor=none;points=[[0,0.5],[1,0.5]];portConstraint=eastwest;fontSize=14;fontColor=#000000;" vertex="1" parent="xa0LcUNzNGY0evP8suMF-211">
          <mxGeometry y="40" width="60" height="40" as="geometry" />
        </mxCell>
        <mxCell id="xa0LcUNzNGY0evP8suMF-219" value="Level4" style="shape=partialRectangle;html=1;whiteSpace=wrap;connectable=0;overflow=hidden;fillColor=none;top=0;left=0;bottom=0;right=0;pointerEvents=1;fontSize=14;fontColor=#000000;" vertex="1" parent="xa0LcUNzNGY0evP8suMF-218">
          <mxGeometry width="60" height="40" as="geometry">
            <mxRectangle width="60" height="40" as="alternateBounds" />
          </mxGeometry>
        </mxCell>
        <mxCell id="xa0LcUNzNGY0evP8suMF-220" value="" style="shape=tableRow;horizontal=0;startSize=0;swimlaneHead=0;swimlaneBody=0;top=0;left=0;bottom=0;right=0;collapsible=0;dropTarget=0;fillColor=none;points=[[0,0.5],[1,0.5]];portConstraint=eastwest;fontSize=14;fontColor=#000000;" vertex="1" parent="xa0LcUNzNGY0evP8suMF-211">
          <mxGeometry y="80" width="60" height="40" as="geometry" />
        </mxCell>
        <mxCell id="xa0LcUNzNGY0evP8suMF-221" value="Level3" style="shape=partialRectangle;html=1;whiteSpace=wrap;connectable=0;overflow=hidden;fillColor=none;top=0;left=0;bottom=0;right=0;pointerEvents=1;fontSize=14;fontColor=#000000;" vertex="1" parent="xa0LcUNzNGY0evP8suMF-220">
          <mxGeometry width="60" height="40" as="geometry">
            <mxRectangle width="60" height="40" as="alternateBounds" />
          </mxGeometry>
        </mxCell>
        <mxCell id="xa0LcUNzNGY0evP8suMF-222" value="" style="shape=tableRow;horizontal=0;startSize=0;swimlaneHead=0;swimlaneBody=0;top=0;left=0;bottom=0;right=0;collapsible=0;dropTarget=0;fillColor=none;points=[[0,0.5],[1,0.5]];portConstraint=eastwest;fontSize=14;fontColor=#000000;" vertex="1" parent="xa0LcUNzNGY0evP8suMF-211">
          <mxGeometry y="120" width="60" height="40" as="geometry" />
        </mxCell>
        <mxCell id="xa0LcUNzNGY0evP8suMF-223" value="Level2" style="shape=partialRectangle;html=1;whiteSpace=wrap;connectable=0;overflow=hidden;fillColor=none;top=0;left=0;bottom=0;right=0;pointerEvents=1;fontSize=14;fontColor=#000000;" vertex="1" parent="xa0LcUNzNGY0evP8suMF-222">
          <mxGeometry width="60" height="40" as="geometry">
            <mxRectangle width="60" height="40" as="alternateBounds" />
          </mxGeometry>
        </mxCell>
        <mxCell id="xa0LcUNzNGY0evP8suMF-224" value="" style="shape=tableRow;horizontal=0;startSize=0;swimlaneHead=0;swimlaneBody=0;top=0;left=0;bottom=0;right=0;collapsible=0;dropTarget=0;fillColor=none;points=[[0,0.5],[1,0.5]];portConstraint=eastwest;fontSize=14;fontColor=#000000;" vertex="1" parent="xa0LcUNzNGY0evP8suMF-211">
          <mxGeometry y="160" width="60" height="40" as="geometry" />
        </mxCell>
        <mxCell id="xa0LcUNzNGY0evP8suMF-225" value="Level1" style="shape=partialRectangle;html=1;whiteSpace=wrap;connectable=0;overflow=hidden;fillColor=none;top=0;left=0;bottom=0;right=0;pointerEvents=1;fontSize=14;fontColor=#000000;" vertex="1" parent="xa0LcUNzNGY0evP8suMF-224">
          <mxGeometry width="60" height="40" as="geometry">
            <mxRectangle width="60" height="40" as="alternateBounds" />
          </mxGeometry>
        </mxCell>
        <mxCell id="xa0LcUNzNGY0evP8suMF-259" style="shape=tableRow;horizontal=0;startSize=0;swimlaneHead=0;swimlaneBody=0;top=0;left=0;bottom=0;right=0;collapsible=0;dropTarget=0;fillColor=none;points=[[0,0.5],[1,0.5]];portConstraint=eastwest;fontSize=14;fontColor=#000000;" vertex="1" parent="xa0LcUNzNGY0evP8suMF-211">
          <mxGeometry y="200" width="60" height="40" as="geometry" />
        </mxCell>
        <mxCell id="xa0LcUNzNGY0evP8suMF-260" value="&lt;pre style=&quot;background-color: rgb(255, 255, 255); font-family: &amp;quot;JetBrains Mono&amp;quot;, monospace; font-size: 9.8pt;&quot;&gt;*&lt;span style=&quot;color: rgb(102, 14, 122);&quot;&gt;backward&lt;/span&gt;&lt;/pre&gt;" style="shape=partialRectangle;html=1;whiteSpace=wrap;connectable=0;overflow=hidden;fillColor=none;top=0;left=0;bottom=0;right=0;pointerEvents=1;fontSize=14;fontColor=#000000;" vertex="1" parent="xa0LcUNzNGY0evP8suMF-259">
          <mxGeometry width="60" height="40" as="geometry">
            <mxRectangle width="60" height="40" as="alternateBounds" />
          </mxGeometry>
        </mxCell>
        <mxCell id="xa0LcUNzNGY0evP8suMF-261" style="shape=tableRow;horizontal=0;startSize=0;swimlaneHead=0;swimlaneBody=0;top=0;left=0;bottom=0;right=0;collapsible=0;dropTarget=0;fillColor=none;points=[[0,0.5],[1,0.5]];portConstraint=eastwest;fontSize=14;fontColor=#000000;" vertex="1" parent="xa0LcUNzNGY0evP8suMF-211">
          <mxGeometry y="240" width="60" height="40" as="geometry" />
        </mxCell>
        <mxCell id="xa0LcUNzNGY0evP8suMF-262" value="&lt;pre style=&quot;background-color: rgb(255, 255, 255); font-family: &amp;quot;JetBrains Mono&amp;quot;, monospace; font-size: 9.8pt;&quot;&gt;&lt;span style=&quot;color:#660e7a;&quot;&gt;score&lt;/span&gt;&lt;/pre&gt;" style="shape=partialRectangle;html=1;whiteSpace=wrap;connectable=0;overflow=hidden;fillColor=none;top=0;left=0;bottom=0;right=0;pointerEvents=1;fontSize=14;fontColor=#000000;" vertex="1" parent="xa0LcUNzNGY0evP8suMF-261">
          <mxGeometry width="60" height="40" as="geometry">
            <mxRectangle width="60" height="40" as="alternateBounds" />
          </mxGeometry>
        </mxCell>
        <mxCell id="xa0LcUNzNGY0evP8suMF-266" style="shape=tableRow;horizontal=0;startSize=0;swimlaneHead=0;swimlaneBody=0;top=0;left=0;bottom=0;right=0;collapsible=0;dropTarget=0;fillColor=none;points=[[0,0.5],[1,0.5]];portConstraint=eastwest;fontSize=14;fontColor=#000000;" vertex="1" parent="xa0LcUNzNGY0evP8suMF-211">
          <mxGeometry y="280" width="60" height="40" as="geometry" />
        </mxCell>
        <mxCell id="xa0LcUNzNGY0evP8suMF-267" value="&lt;span style=&quot;&quot;&gt;sds&lt;/span&gt;" style="shape=partialRectangle;html=1;whiteSpace=wrap;connectable=0;overflow=hidden;fillColor=none;top=0;left=0;bottom=0;right=0;pointerEvents=1;fontSize=14;fontColor=#000000;" vertex="1" parent="xa0LcUNzNGY0evP8suMF-266">
          <mxGeometry width="60" height="40" as="geometry">
            <mxRectangle width="60" height="40" as="alternateBounds" />
          </mxGeometry>
        </mxCell>
        <mxCell id="xa0LcUNzNGY0evP8suMF-247" style="edgeStyle=orthogonalEdgeStyle;rounded=0;orthogonalLoop=1;jettySize=auto;html=1;fontSize=14;fontColor=#000000;curved=1;" edge="1" parent="1" source="xa0LcUNzNGY0evP8suMF-245" target="xa0LcUNzNGY0evP8suMF-248">
          <mxGeometry relative="1" as="geometry">
            <mxPoint x="360" y="260" as="targetPoint" />
          </mxGeometry>
        </mxCell>
        <mxCell id="xa0LcUNzNGY0evP8suMF-248" value="Null" style="text;html=1;strokeColor=none;fillColor=none;align=center;verticalAlign=middle;whiteSpace=wrap;rounded=0;fontSize=14;fontColor=#000000;" vertex="1" parent="1">
          <mxGeometry x="330" y="245" width="60" height="30" as="geometry" />
        </mxCell>
        <mxCell id="xa0LcUNzNGY0evP8suMF-249" style="edgeStyle=orthogonalEdgeStyle;curved=1;rounded=0;orthogonalLoop=1;jettySize=auto;html=1;entryX=0;entryY=0.5;entryDx=0;entryDy=0;fontSize=14;fontColor=#000000;" edge="1" parent="1" source="xa0LcUNzNGY0evP8suMF-134" target="xa0LcUNzNGY0evP8suMF-209">
          <mxGeometry relative="1" as="geometry" />
        </mxCell>
        <mxCell id="xa0LcUNzNGY0evP8suMF-320" value="1" style="edgeLabel;html=1;align=center;verticalAlign=middle;resizable=0;points=[];fontSize=14;fontColor=#000000;" vertex="1" connectable="0" parent="xa0LcUNzNGY0evP8suMF-249">
          <mxGeometry x="-0.3033" y="-2" relative="1" as="geometry">
            <mxPoint as="offset" />
          </mxGeometry>
        </mxCell>
        <mxCell id="xa0LcUNzNGY0evP8suMF-250" style="edgeStyle=orthogonalEdgeStyle;curved=1;rounded=0;orthogonalLoop=1;jettySize=auto;html=1;fontSize=14;fontColor=#000000;" edge="1" parent="1" source="xa0LcUNzNGY0evP8suMF-132" target="xa0LcUNzNGY0evP8suMF-207">
          <mxGeometry relative="1" as="geometry" />
        </mxCell>
        <mxCell id="xa0LcUNzNGY0evP8suMF-251" style="edgeStyle=orthogonalEdgeStyle;curved=1;rounded=0;orthogonalLoop=1;jettySize=auto;html=1;fontSize=14;fontColor=#000000;" edge="1" parent="1" source="xa0LcUNzNGY0evP8suMF-130" target="xa0LcUNzNGY0evP8suMF-205">
          <mxGeometry relative="1" as="geometry" />
        </mxCell>
        <mxCell id="xa0LcUNzNGY0evP8suMF-252" style="edgeStyle=orthogonalEdgeStyle;curved=1;rounded=0;orthogonalLoop=1;jettySize=auto;html=1;fontSize=14;fontColor=#000000;" edge="1" parent="1" source="xa0LcUNzNGY0evP8suMF-128" target="xa0LcUNzNGY0evP8suMF-203">
          <mxGeometry relative="1" as="geometry" />
        </mxCell>
        <mxCell id="xa0LcUNzNGY0evP8suMF-253" style="edgeStyle=orthogonalEdgeStyle;curved=1;rounded=0;orthogonalLoop=1;jettySize=auto;html=1;fontSize=14;fontColor=#000000;" edge="1" parent="1" source="xa0LcUNzNGY0evP8suMF-126" target="xa0LcUNzNGY0evP8suMF-201">
          <mxGeometry relative="1" as="geometry" />
        </mxCell>
        <mxCell id="xa0LcUNzNGY0evP8suMF-254" value="1" style="edgeStyle=orthogonalEdgeStyle;curved=1;rounded=0;orthogonalLoop=1;jettySize=auto;html=1;fontSize=14;fontColor=#000000;" edge="1" parent="1" source="xa0LcUNzNGY0evP8suMF-209" target="xa0LcUNzNGY0evP8suMF-224">
          <mxGeometry relative="1" as="geometry" />
        </mxCell>
        <mxCell id="xa0LcUNzNGY0evP8suMF-255" style="edgeStyle=orthogonalEdgeStyle;curved=1;rounded=0;orthogonalLoop=1;jettySize=auto;html=1;fontSize=14;fontColor=#000000;" edge="1" parent="1" source="xa0LcUNzNGY0evP8suMF-207" target="xa0LcUNzNGY0evP8suMF-222">
          <mxGeometry relative="1" as="geometry" />
        </mxCell>
        <mxCell id="xa0LcUNzNGY0evP8suMF-256" style="edgeStyle=orthogonalEdgeStyle;curved=1;rounded=0;orthogonalLoop=1;jettySize=auto;html=1;fontSize=14;fontColor=#000000;" edge="1" parent="1" source="xa0LcUNzNGY0evP8suMF-205" target="xa0LcUNzNGY0evP8suMF-220">
          <mxGeometry relative="1" as="geometry" />
        </mxCell>
        <mxCell id="xa0LcUNzNGY0evP8suMF-257" style="edgeStyle=orthogonalEdgeStyle;curved=1;rounded=0;orthogonalLoop=1;jettySize=auto;html=1;fontSize=14;fontColor=#000000;" edge="1" parent="1" source="xa0LcUNzNGY0evP8suMF-203" target="xa0LcUNzNGY0evP8suMF-218">
          <mxGeometry relative="1" as="geometry" />
        </mxCell>
        <mxCell id="xa0LcUNzNGY0evP8suMF-258" style="edgeStyle=orthogonalEdgeStyle;curved=1;rounded=0;orthogonalLoop=1;jettySize=auto;html=1;fontSize=14;fontColor=#000000;" edge="1" parent="1" source="xa0LcUNzNGY0evP8suMF-201" target="xa0LcUNzNGY0evP8suMF-216">
          <mxGeometry relative="1" as="geometry" />
        </mxCell>
        <mxCell id="xa0LcUNzNGY0evP8suMF-263" style="edgeStyle=orthogonalEdgeStyle;curved=1;rounded=0;orthogonalLoop=1;jettySize=auto;html=1;entryX=1;entryY=0.5;entryDx=0;entryDy=0;fontSize=14;fontColor=#000000;" edge="1" parent="1" source="xa0LcUNzNGY0evP8suMF-259" target="xa0LcUNzNGY0evP8suMF-245">
          <mxGeometry relative="1" as="geometry" />
        </mxCell>
        <mxCell id="xa0LcUNzNGY0evP8suMF-289" value="" style="shape=table;startSize=0;container=1;collapsible=0;childLayout=tableLayout;fontSize=14;fontColor=#000000;" vertex="1" parent="1">
          <mxGeometry x="690" y="-110" width="60" height="400" as="geometry" />
        </mxCell>
        <mxCell id="xa0LcUNzNGY0evP8suMF-290" value="" style="shape=tableRow;horizontal=0;startSize=0;swimlaneHead=0;swimlaneBody=0;top=0;left=0;bottom=0;right=0;collapsible=0;dropTarget=0;fillColor=none;points=[[0,0.5],[1,0.5]];portConstraint=eastwest;fontSize=14;fontColor=#000000;" vertex="1" parent="xa0LcUNzNGY0evP8suMF-289">
          <mxGeometry width="60" height="40" as="geometry" />
        </mxCell>
        <mxCell id="xa0LcUNzNGY0evP8suMF-291" value="Level32" style="shape=partialRectangle;html=1;whiteSpace=wrap;connectable=0;overflow=hidden;fillColor=none;top=0;left=0;bottom=0;right=0;pointerEvents=1;fontSize=14;fontColor=#000000;" vertex="1" parent="xa0LcUNzNGY0evP8suMF-290">
          <mxGeometry width="60" height="40" as="geometry">
            <mxRectangle width="60" height="40" as="alternateBounds" />
          </mxGeometry>
        </mxCell>
        <mxCell id="xa0LcUNzNGY0evP8suMF-292" value="" style="shape=tableRow;horizontal=0;startSize=0;swimlaneHead=0;swimlaneBody=0;top=0;left=0;bottom=0;right=0;collapsible=0;dropTarget=0;fillColor=none;points=[[0,0.5],[1,0.5]];portConstraint=eastwest;fontSize=14;fontColor=#000000;" vertex="1" parent="xa0LcUNzNGY0evP8suMF-289">
          <mxGeometry y="40" width="60" height="40" as="geometry" />
        </mxCell>
        <mxCell id="xa0LcUNzNGY0evP8suMF-293" value="……" style="shape=partialRectangle;html=1;whiteSpace=wrap;connectable=0;overflow=hidden;fillColor=none;top=0;left=0;bottom=0;right=0;pointerEvents=1;fontSize=14;fontColor=#000000;" vertex="1" parent="xa0LcUNzNGY0evP8suMF-292">
          <mxGeometry width="60" height="40" as="geometry">
            <mxRectangle width="60" height="40" as="alternateBounds" />
          </mxGeometry>
        </mxCell>
        <mxCell id="xa0LcUNzNGY0evP8suMF-294" value="" style="shape=tableRow;horizontal=0;startSize=0;swimlaneHead=0;swimlaneBody=0;top=0;left=0;bottom=0;right=0;collapsible=0;dropTarget=0;fillColor=none;points=[[0,0.5],[1,0.5]];portConstraint=eastwest;fontSize=14;fontColor=#000000;" vertex="1" parent="xa0LcUNzNGY0evP8suMF-289">
          <mxGeometry y="80" width="60" height="40" as="geometry" />
        </mxCell>
        <mxCell id="xa0LcUNzNGY0evP8suMF-295" value="&lt;span style=&quot;&quot;&gt;Level5&lt;/span&gt;" style="shape=partialRectangle;html=1;whiteSpace=wrap;connectable=0;overflow=hidden;fillColor=none;top=0;left=0;bottom=0;right=0;pointerEvents=1;fontSize=14;fontColor=#000000;" vertex="1" parent="xa0LcUNzNGY0evP8suMF-294">
          <mxGeometry width="60" height="40" as="geometry">
            <mxRectangle width="60" height="40" as="alternateBounds" />
          </mxGeometry>
        </mxCell>
        <mxCell id="xa0LcUNzNGY0evP8suMF-296" value="" style="shape=tableRow;horizontal=0;startSize=0;swimlaneHead=0;swimlaneBody=0;top=0;left=0;bottom=0;right=0;collapsible=0;dropTarget=0;fillColor=none;points=[[0,0.5],[1,0.5]];portConstraint=eastwest;fontSize=14;fontColor=#000000;" vertex="1" parent="xa0LcUNzNGY0evP8suMF-289">
          <mxGeometry y="120" width="60" height="40" as="geometry" />
        </mxCell>
        <mxCell id="xa0LcUNzNGY0evP8suMF-297" value="Level4" style="shape=partialRectangle;html=1;whiteSpace=wrap;connectable=0;overflow=hidden;fillColor=none;top=0;left=0;bottom=0;right=0;pointerEvents=1;fontSize=14;fontColor=#000000;" vertex="1" parent="xa0LcUNzNGY0evP8suMF-296">
          <mxGeometry width="60" height="40" as="geometry">
            <mxRectangle width="60" height="40" as="alternateBounds" />
          </mxGeometry>
        </mxCell>
        <mxCell id="xa0LcUNzNGY0evP8suMF-298" value="" style="shape=tableRow;horizontal=0;startSize=0;swimlaneHead=0;swimlaneBody=0;top=0;left=0;bottom=0;right=0;collapsible=0;dropTarget=0;fillColor=none;points=[[0,0.5],[1,0.5]];portConstraint=eastwest;fontSize=14;fontColor=#000000;" vertex="1" parent="xa0LcUNzNGY0evP8suMF-289">
          <mxGeometry y="160" width="60" height="40" as="geometry" />
        </mxCell>
        <mxCell id="xa0LcUNzNGY0evP8suMF-299" value="Level3" style="shape=partialRectangle;html=1;whiteSpace=wrap;connectable=0;overflow=hidden;fillColor=none;top=0;left=0;bottom=0;right=0;pointerEvents=1;fontSize=14;fontColor=#000000;" vertex="1" parent="xa0LcUNzNGY0evP8suMF-298">
          <mxGeometry width="60" height="40" as="geometry">
            <mxRectangle width="60" height="40" as="alternateBounds" />
          </mxGeometry>
        </mxCell>
        <mxCell id="xa0LcUNzNGY0evP8suMF-300" value="" style="shape=tableRow;horizontal=0;startSize=0;swimlaneHead=0;swimlaneBody=0;top=0;left=0;bottom=0;right=0;collapsible=0;dropTarget=0;fillColor=none;points=[[0,0.5],[1,0.5]];portConstraint=eastwest;fontSize=14;fontColor=#000000;" vertex="1" parent="xa0LcUNzNGY0evP8suMF-289">
          <mxGeometry y="200" width="60" height="40" as="geometry" />
        </mxCell>
        <mxCell id="xa0LcUNzNGY0evP8suMF-301" value="Level2" style="shape=partialRectangle;html=1;whiteSpace=wrap;connectable=0;overflow=hidden;fillColor=none;top=0;left=0;bottom=0;right=0;pointerEvents=1;fontSize=14;fontColor=#000000;" vertex="1" parent="xa0LcUNzNGY0evP8suMF-300">
          <mxGeometry width="60" height="40" as="geometry">
            <mxRectangle width="60" height="40" as="alternateBounds" />
          </mxGeometry>
        </mxCell>
        <mxCell id="xa0LcUNzNGY0evP8suMF-302" value="" style="shape=tableRow;horizontal=0;startSize=0;swimlaneHead=0;swimlaneBody=0;top=0;left=0;bottom=0;right=0;collapsible=0;dropTarget=0;fillColor=none;points=[[0,0.5],[1,0.5]];portConstraint=eastwest;fontSize=14;fontColor=#000000;" vertex="1" parent="xa0LcUNzNGY0evP8suMF-289">
          <mxGeometry y="240" width="60" height="40" as="geometry" />
        </mxCell>
        <mxCell id="xa0LcUNzNGY0evP8suMF-303" value="Level1" style="shape=partialRectangle;html=1;whiteSpace=wrap;connectable=0;overflow=hidden;fillColor=none;top=0;left=0;bottom=0;right=0;pointerEvents=1;fontSize=14;fontColor=#000000;" vertex="1" parent="xa0LcUNzNGY0evP8suMF-302">
          <mxGeometry width="60" height="40" as="geometry">
            <mxRectangle width="60" height="40" as="alternateBounds" />
          </mxGeometry>
        </mxCell>
        <mxCell id="xa0LcUNzNGY0evP8suMF-304" style="shape=tableRow;horizontal=0;startSize=0;swimlaneHead=0;swimlaneBody=0;top=0;left=0;bottom=0;right=0;collapsible=0;dropTarget=0;fillColor=none;points=[[0,0.5],[1,0.5]];portConstraint=eastwest;fontSize=14;fontColor=#000000;" vertex="1" parent="xa0LcUNzNGY0evP8suMF-289">
          <mxGeometry y="280" width="60" height="40" as="geometry" />
        </mxCell>
        <mxCell id="xa0LcUNzNGY0evP8suMF-305" value="&lt;pre style=&quot;background-color: rgb(255, 255, 255); font-family: &amp;quot;JetBrains Mono&amp;quot;, monospace; font-size: 9.8pt;&quot;&gt;*&lt;span style=&quot;color: rgb(102, 14, 122);&quot;&gt;backward&lt;/span&gt;&lt;/pre&gt;" style="shape=partialRectangle;html=1;whiteSpace=wrap;connectable=0;overflow=hidden;fillColor=none;top=0;left=0;bottom=0;right=0;pointerEvents=1;fontSize=14;fontColor=#000000;" vertex="1" parent="xa0LcUNzNGY0evP8suMF-304">
          <mxGeometry width="60" height="40" as="geometry">
            <mxRectangle width="60" height="40" as="alternateBounds" />
          </mxGeometry>
        </mxCell>
        <mxCell id="xa0LcUNzNGY0evP8suMF-306" style="shape=tableRow;horizontal=0;startSize=0;swimlaneHead=0;swimlaneBody=0;top=0;left=0;bottom=0;right=0;collapsible=0;dropTarget=0;fillColor=none;points=[[0,0.5],[1,0.5]];portConstraint=eastwest;fontSize=14;fontColor=#000000;" vertex="1" parent="xa0LcUNzNGY0evP8suMF-289">
          <mxGeometry y="320" width="60" height="40" as="geometry" />
        </mxCell>
        <mxCell id="xa0LcUNzNGY0evP8suMF-307" value="&lt;pre style=&quot;background-color: rgb(255, 255, 255); font-family: &amp;quot;JetBrains Mono&amp;quot;, monospace; font-size: 9.8pt;&quot;&gt;&lt;span style=&quot;color:#660e7a;&quot;&gt;score&lt;/span&gt;&lt;/pre&gt;" style="shape=partialRectangle;html=1;whiteSpace=wrap;connectable=0;overflow=hidden;fillColor=none;top=0;left=0;bottom=0;right=0;pointerEvents=1;fontSize=14;fontColor=#000000;" vertex="1" parent="xa0LcUNzNGY0evP8suMF-306">
          <mxGeometry width="60" height="40" as="geometry">
            <mxRectangle width="60" height="40" as="alternateBounds" />
          </mxGeometry>
        </mxCell>
        <mxCell id="xa0LcUNzNGY0evP8suMF-308" style="shape=tableRow;horizontal=0;startSize=0;swimlaneHead=0;swimlaneBody=0;top=0;left=0;bottom=0;right=0;collapsible=0;dropTarget=0;fillColor=none;points=[[0,0.5],[1,0.5]];portConstraint=eastwest;fontSize=14;fontColor=#000000;" vertex="1" parent="xa0LcUNzNGY0evP8suMF-289">
          <mxGeometry y="360" width="60" height="40" as="geometry" />
        </mxCell>
        <mxCell id="xa0LcUNzNGY0evP8suMF-309" value="&lt;span style=&quot;&quot;&gt;sds&lt;/span&gt;" style="shape=partialRectangle;html=1;whiteSpace=wrap;connectable=0;overflow=hidden;fillColor=none;top=0;left=0;bottom=0;right=0;pointerEvents=1;fontSize=14;fontColor=#000000;" vertex="1" parent="xa0LcUNzNGY0evP8suMF-308">
          <mxGeometry width="60" height="40" as="geometry">
            <mxRectangle width="60" height="40" as="alternateBounds" />
          </mxGeometry>
        </mxCell>
        <mxCell id="xa0LcUNzNGY0evP8suMF-310" style="edgeStyle=orthogonalEdgeStyle;curved=1;rounded=0;orthogonalLoop=1;jettySize=auto;html=1;fontSize=14;fontColor=#000000;" edge="1" parent="1" target="xa0LcUNzNGY0evP8suMF-302" source="xa0LcUNzNGY0evP8suMF-224">
          <mxGeometry relative="1" as="geometry">
            <mxPoint x="760" y="240" as="sourcePoint" />
          </mxGeometry>
        </mxCell>
        <mxCell id="xa0LcUNzNGY0evP8suMF-311" style="edgeStyle=orthogonalEdgeStyle;curved=1;rounded=0;orthogonalLoop=1;jettySize=auto;html=1;fontSize=14;fontColor=#000000;" edge="1" parent="1" target="xa0LcUNzNGY0evP8suMF-300" source="xa0LcUNzNGY0evP8suMF-222">
          <mxGeometry relative="1" as="geometry">
            <mxPoint x="760" y="200" as="sourcePoint" />
          </mxGeometry>
        </mxCell>
        <mxCell id="xa0LcUNzNGY0evP8suMF-312" style="edgeStyle=orthogonalEdgeStyle;curved=1;rounded=0;orthogonalLoop=1;jettySize=auto;html=1;fontSize=14;fontColor=#000000;" edge="1" parent="1" target="xa0LcUNzNGY0evP8suMF-298" source="xa0LcUNzNGY0evP8suMF-220">
          <mxGeometry relative="1" as="geometry">
            <mxPoint x="760" y="160" as="sourcePoint" />
          </mxGeometry>
        </mxCell>
        <mxCell id="xa0LcUNzNGY0evP8suMF-313" style="edgeStyle=orthogonalEdgeStyle;curved=1;rounded=0;orthogonalLoop=1;jettySize=auto;html=1;fontSize=14;fontColor=#000000;" edge="1" parent="1" target="xa0LcUNzNGY0evP8suMF-296" source="xa0LcUNzNGY0evP8suMF-218">
          <mxGeometry relative="1" as="geometry">
            <mxPoint x="760" y="120" as="sourcePoint" />
          </mxGeometry>
        </mxCell>
        <mxCell id="xa0LcUNzNGY0evP8suMF-314" style="edgeStyle=orthogonalEdgeStyle;curved=1;rounded=0;orthogonalLoop=1;jettySize=auto;html=1;fontSize=14;fontColor=#000000;" edge="1" parent="1" target="xa0LcUNzNGY0evP8suMF-294" source="xa0LcUNzNGY0evP8suMF-216">
          <mxGeometry relative="1" as="geometry">
            <mxPoint x="760" y="80" as="sourcePoint" />
          </mxGeometry>
        </mxCell>
        <mxCell id="xa0LcUNzNGY0evP8suMF-315" style="edgeStyle=orthogonalEdgeStyle;curved=1;rounded=0;orthogonalLoop=1;jettySize=auto;html=1;fontSize=14;fontColor=#000000;" edge="1" parent="1" source="xa0LcUNzNGY0evP8suMF-304" target="xa0LcUNzNGY0evP8suMF-259">
          <mxGeometry relative="1" as="geometry">
            <mxPoint x="760" y="280" as="targetPoint" />
          </mxGeometry>
        </mxCell>
        <mxCell id="xa0LcUNzNGY0evP8suMF-316" style="edgeStyle=orthogonalEdgeStyle;curved=1;rounded=0;orthogonalLoop=1;jettySize=auto;html=1;entryX=-0.047;entryY=0.755;entryDx=0;entryDy=0;entryPerimeter=0;fontSize=14;fontColor=#000000;" edge="1" parent="1" source="xa0LcUNzNGY0evP8suMF-113" target="xa0LcUNzNGY0evP8suMF-124">
          <mxGeometry relative="1" as="geometry" />
        </mxCell>
        <mxCell id="xa0LcUNzNGY0evP8suMF-319" style="edgeStyle=elbowEdgeStyle;rounded=1;orthogonalLoop=1;jettySize=auto;html=1;fontSize=14;fontColor=#000000;elbow=vertical;" edge="1" parent="1" source="xa0LcUNzNGY0evP8suMF-115" target="xa0LcUNzNGY0evP8suMF-292">
          <mxGeometry relative="1" as="geometry">
            <Array as="points">
              <mxPoint x="420" y="470" />
            </Array>
          </mxGeometry>
        </mxCell>
        <mxCell id="xa0LcUNzNGY0evP8suMF-321" value="2" style="edgeStyle=orthogonalEdgeStyle;rounded=1;orthogonalLoop=1;jettySize=auto;elbow=vertical;html=1;fontSize=14;fontColor=#000000;curved=1;" edge="1" parent="1" source="xa0LcUNzNGY0evP8suMF-126" target="xa0LcUNzNGY0evP8suMF-216">
          <mxGeometry relative="1" as="geometry" />
        </mxCell>
      </root>
    </mxGraphModel>
  </diagram>
</mxfile>
